# xmcd CD database file
#
# Track frame offsets:
#	150
#	13870
#	31950
#	44772
#	59097
#	80921
#	96845
#	125587
#	143638
#	165547
#	183133
#	197541
#
# Disc length: 2885 seconds
#
# Revision: 0
# Processed by: cddbd v1.5.1PL0 Copyright (c) Steve Scherf et al.
# Submitted via: CDex 1.51
#
DISCID=a80b430c
DTITLE=Brian Houser - Simple Lives
DYEAR=2004
DGENRE=Country
TTITLE0=Born and Bound to the Road
TTITLE1=Jody Why
TTITLE2=I'll Take Texas Every Time
TTITLE3=Simple Tragedies
TTITLE4=Sally Bowman
TTITLE5=One More, One Last Beer
TTITLE6=Tex and Dymple
TTITLE7=Standing Strong For You
TTITLE8=Cowboy Song
TTITLE9=Lonesome Old Freight Train
TTITLE10=A Little Ahead
TTITLE11=Joy's Valentine
EXTD=YEAR: 2004
EXTT0=
EXTT1=
EXTT2=
EXTT3=
EXTT4=
EXTT5=
EXTT6=
EXTT7=
EXTT8=
EXTT9=
EXTT10=
EXTT11=
PLAYORDER=
